Coordinates
version=1
nRows=13
nColumns=63
inDegrees=yes

Units are S.I. units (second, meters, Newtons, ...)
If the header above contains a line with 'inDegrees', this indicates whether rotational values are in degrees (yes) or radians (no).

endheader
time	pelvis_tilt	pelvis_list	pelvis_rotation	pelvis_tx	pelvis_ty	pelvis_tz	hip_flexion_r	hip_adduction_r	hip_rotation_r	knee_angle_r	knee_angle_r_beta	ankle_angle_r	subtalar_angle_r	mtp_angle_r	hip_flexion_l	hip_adduction_l	hip_rotation_l	knee_angle_l	knee_angle_l_beta	ankle_angle_l	subtalar_angle_l	mtp_angle_l	L5_S1_Flex_Ext	L5_S1_Lat_Bending	L5_S1_axial_rotation	L4_L5_Flex_Ext	L4_L5_Lat_Bending	L4_L5_axial_rotation	L3_L4_Flex_Ext	L3_L4_Lat_Bending	L3_L4_axial_rotation	L2_L3_Flex_Ext	L2_L3_Lat_Bending	L2_L3_axial_rotation	L1_L2_Flex_Ext	L1_L2_Lat_Bending	L1_L2_axial_rotation	L1_T12_Flex_Ext	L1_T12_Lat_Bending	L1_T12_axial_rotation	Abs_r3	Abs_r2	Abs_r1	Abs_t1	Abs_t2	neck_flexion	neck_bending	neck_rotation	arm_flex_r	arm_add_r	arm_rot_r	elbow_flex_r	pro_sup_r	wrist_flex_r	wrist_dev_r	arm_flex_l	arm_add_l	arm_rot_l	elbow_flex_l	pro_sup_l	wrist_flex_l	wrist_dev_l
0.000000	-3.560189	-3.587603	86.623313	0.225713	0.730160	0.719655	6.835954	-4.825035	-17.125724	12.795681	0.223327	22.524121	18.225821	0.000000	5.965761	2.709861	3.153804	8.908544	0.155483	1.939059	-15.533837	0.000000	0.135176	-0.534886	-0.140241	0.251036	-0.711398	-0.149006	0.222081	-1.300521	-0.149006	0.154493	-1.300521	-0.122711	0.125525	-1.090739	-0.113946	0.077240	-0.828538	-0.105181	0.965550	-6.050735	-0.779977	0.000000	0.000000	2.306679	3.669995	-7.539234	6.316203	-27.737365	53.052217	98.598106	59.870044	20.825591	8.719180	18.348979	-34.651461	68.182448	105.417836	89.425699	15.187143	19.780655
0.016949	-3.733432	-3.328624	85.372643	0.226971	0.729838	0.719905	6.569825	-4.815511	-15.120707	12.090221	0.211014	22.928909	18.258436	0.000000	5.486402	2.835460	1.948311	8.435233	0.147223	3.141663	-15.487413	0.000000	0.117346	-0.551337	0.045554	0.217923	-0.733278	0.048402	0.192788	-1.340521	0.048402	0.134115	-1.340521	0.039860	0.108967	-1.124286	0.037013	0.067051	-0.854021	0.034166	0.838190	-6.236834	0.253360	0.000000	0.000000	2.113737	3.690504	-7.255353	6.787773	-27.470496	53.170512	98.460477	62.616315	20.717337	9.367976	17.594692	-34.300599	66.089405	105.090244	89.216828	15.710560	19.631994
0.033898	-3.883156	-3.097018	84.433938	0.227961	0.729626	0.719989	6.293451	-4.824085	-13.601859	11.505955	0.200817	23.203544	18.267918	0.000000	5.079997	2.951434	1.015310	8.074933	0.140934	4.014406	-15.505224	0.000000	0.099964	-0.567208	0.185182	0.185644	-0.754387	0.196756	0.164231	-1.379110	0.196756	0.114249	-1.379110	0.162034	0.092827	-1.156651	0.150461	0.057120	-0.878606	0.138887	0.714035	-6.416373	1.029928	0.000000	0.000000	1.963565	3.750619	-7.012862	7.114855	-27.251626	53.325937	98.360579	64.534283	20.510754	9.960405	17.053396	-34.051248	64.451978	104.853851	89.002469	15.988008	19.421743
0.050847	-4.010343	-2.891567	83.776741	0.228706	0.729510	0.719926	6.010930	-4.847870	-12.523759	11.033477	0.192571	23.360891	18.257274	0.000000	4.741276	3.057366	0.328162	7.817452	0.136440	4.588300	-15.578974	0.000000	0.083133	-0.582317	0.283093	0.154387	-0.774482	0.300786	0.136580	-1.415846	0.300786	0.095013	-1.415846	0.247706	0.077198	-1.187461	0.230013	0.047502	-0.902009	0.212320	0.593813	-6.587289	1.574477	0.000000	0.000000	1.851952	3.844142	-6.807417	7.311546	-27.077147	53.507711	98.290311	65.708343	20.224453	10.489089	16.700506	-33.888805	63.225864	104.692323	88.786651	16.048430	19.159504
0.067797	-4.115975	-2.711055	83.370596	0.229230	0.729480	0.719740	5.726358	-4.883981	-11.840988	10.663382	0.186111	23.413819	18.229513	0.000000	4.464968	3.152837	-0.139774	7.652594	0.133563	4.894357	-15.700370	0.000000	0.066955	-0.596482	0.343736	0.124342	-0.793321	0.365220	0.110000	-1.450285	0.365220	0.076523	-1.450285	0.300769	0.062174	-1.216345	0.279286	0.038258	-0.923950	0.257802	0.478252	-6.747520	1.911758	0.000000	0.000000	1.774686	3.964877	-6.634672	7.391941	-26.943457	53.705054	98.241572	66.222888	19.877047	10.946644	16.511438	-33.798670	62.366759	104.589326	88.573397	15.920765	18.854875
0.084746	-4.201033	-2.554263	83.185045	0.229554	0.729523	0.719451	5.443832	-4.929529	-11.508127	10.386263	0.181274	23.375195	18.187643	0.000000	4.245802	3.237429	-0.415138	7.570167	0.132124	4.963590	-15.861119	0.000000	0.051531	-0.609519	0.371563	0.095698	-0.810660	0.394786	0.084660	-1.481985	0.394786	0.058895	-1.481985	0.325118	0.047852	-1.242931	0.301895	0.029445	-0.944145	0.278672	0.368081	-6.895002	2.066522	0.000000	0.000000	1.727557	4.106628	-6.490283	7.370136	-26.846951	53.907188	98.206263	66.162313	19.487146	11.325691	16.461609	-33.766239	61.830361	104.528527	88.366734	15.633955	18.517455
0.101695	-4.266500	-2.419975	83.189633	0.229702	0.729627	0.719080	5.167449	-4.981629	-11.479756	10.192714	0.177896	23.257885	18.134674	0.000000	4.078506	3.310726	-0.524570	7.559976	0.131946	4.827010	-16.052925	0.000000	0.036964	-0.621247	0.371023	0.068645	-0.826259	0.394212	0.060728	-1.510500	0.394212	0.042246	-1.510500	0.324645	0.034324	-1.266847	0.301456	0.021121	-0.962312	0.278267	0.264028	-7.027672	2.063519	0.000000	0.000000	1.706353	4.263198	-6.369905	7.260226	-26.784024	54.103332	98.176282	65.611014	19.073362	11.618849	16.526435	-33.776912	61.572367	104.493590	88.170689	15.216942	18.156846
0.118644	-4.313358	-2.306974	83.353902	0.229697	0.729781	0.718650	4.901305	-5.037394	-11.710456	10.073329	0.175813	23.074757	18.073612	0.000000	3.957811	3.372308	-0.494709	7.611827	0.132851	4.515631	-16.267495	0.000000	0.023355	-0.631483	0.346567	0.043372	-0.839873	0.368227	0.038370	-1.535389	0.368227	0.026692	-1.535389	0.303246	0.021687	-1.287721	0.281586	0.013345	-0.978168	0.259925	0.166821	-7.143467	1.927501	0.000000	0.000000	1.706862	4.428391	-6.269193	7.076307	-26.751071	54.282707	98.143531	64.653384	18.654306	11.818737	16.681332	-33.816087	61.548473	104.468184	87.989286	14.698665	17.782645
0.135593	-4.342588	-2.214041	83.647397	0.229561	0.729972	0.718182	4.649497	-5.093938	-12.154807	10.018701	0.174859	22.838678	18.007468	0.000000	3.878445	3.421759	-0.352196	7.715527	0.134661	4.060465	-16.496535	0.000000	0.010806	-0.640046	0.302644	0.020068	-0.851261	0.321559	0.017754	-1.556207	0.321559	0.012350	-1.556207	0.264814	0.010035	-1.305181	0.245898	0.006175	-0.991431	0.226983	0.077188	-7.240325	1.683216	0.000000	0.000000	1.724874	4.596011	-6.183802	6.832474	-26.744488	54.434533	98.099907	63.373819	18.248590	11.917973	16.901716	-33.869161	61.714376	104.435973	87.826552	14.108067	17.404454
0.152542	-4.355173	-2.139961	84.039661	0.229317	0.730189	0.717697	4.416122	-5.148374	-12.767391	10.019424	0.174872	22.562514	17.939248	0.000000	3.835136	3.458660	-0.123670	7.860881	0.137198	3.492523	-16.731751	0.000000	-0.000580	-0.646751	0.243706	-0.001077	-0.860179	0.258937	-0.000953	-1.572511	0.258937	-0.000663	-1.572511	0.213242	-0.000538	-1.318856	0.198011	-0.000331	-1.001818	0.182779	-0.004142	-7.316182	1.355417	0.000000	0.000000	1.756178	4.759861	-6.109388	6.542823	-26.760671	54.548029	98.037312	61.856712	17.874824	11.909177	17.163004	-33.921535	62.025773	104.380623	87.686513	13.474088	17.031870
0.169492	-4.352095	-2.083516	84.500238	0.228988	0.730419	0.717216	4.205276	-5.197815	-13.502788	10.066092	0.175686	22.259134	17.871963	0.000000	3.822615	3.482595	0.164227	8.037696	0.140284	2.842820	-16.964849	0.000000	-0.010702	-0.651418	0.174201	-0.019874	-0.866386	0.185089	-0.017582	-1.583859	0.185089	-0.012231	-1.583859	0.152426	-0.009937	-1.328372	0.141538	-0.006115	-1.009047	0.130651	-0.076440	-7.368975	0.968854	0.000000	0.000000	1.796562	4.913745	-6.041604	6.221450	-26.796015	54.612417	97.947645	60.186458	17.551622	11.784968	17.440611	-33.958605	62.438361	104.285802	87.573195	12.825669	16.674495
0.186441	-4.336668	-2.030091	84.958997	0.228594	0.730632	0.716838	4.021508	-5.250544	-14.312598	10.166163	0.177433	21.922989	17.821763	0.000000	3.828589	3.499041	0.435533	8.262642	0.144210	2.091996	-17.160540	0.000000	-0.021269	-0.653163	0.107817	-0.039498	-0.868706	0.114555	-0.034942	-1.588099	0.114555	-0.024308	-1.588099	0.094340	-0.019750	-1.331929	0.087601	-0.012153	-1.011749	0.080863	-0.151920	-7.388706	0.599645	0.000000	0.000000	1.839327	5.019122	-5.986446	5.854095	-26.796733	54.589347	97.731393	58.939661	17.561026	11.417634	17.838789	-33.933812	63.060007	104.099993	87.486536	11.947466	16.415154
0.203390	-4.297373	-2.008165	85.412157	0.228167	0.730819	0.716489	3.885863	-5.268381	-15.089526	10.269408	0.179235	21.630895	17.781825	0.000000	3.861639	3.485560	0.674315	8.477800	0.147966	1.376277	-17.340927	0.000000	-0.027514	-0.651117	0.038921	-0.051096	-0.865985	0.041354	-0.045203	-1.583125	0.041354	-0.031446	-1.583125	0.034056	-0.025549	-1.327757	0.031623	-0.015721	-1.008580	0.029191	-0.196530	-7.365562	0.216468	0.000000	0.000000	1.871220	5.104775	-5.930815	5.488323	-26.855035	54.433552	97.525635	57.459424	17.648863	10.991658	18.116124	-33.867627	63.593771	103.854784	87.459280	11.503230	16.309661
